# xmcd
#
# Track frame offsets:
#	150
#	17317
#	33073
#	48539
#	67395
#	82893
#	97079
#	127053
#	141694
#	157460
#	172272
#	187178
#	202850
#	218231
#	233885
#	250356
#	266135
#	281609
#	296631
#	312299
#
# Disc length: 4503 seconds
#
# Revision: 0
# Processed by: cddbd v1.5.2PL0 Copyright (c) Steve Scherf et al.
# Submitted via: EasyCDDAExtractor 16.0.6.1
#
DISCID=44119514
DTITLE=Συλλογικός δίσκος - Μουσικό ημερολόγιο 2007 Οι μεγάλοι σολίστες
DYEAR=2006
DGENRE=Ποικίλη
TTITLE0=Τσομίδης Ιορδάνης - Αχ γιατί δεν μ' αγαπάς [Βαγγέλης Περπινιάδης, σόλο
TTITLE0=μπουζ. Ι. Τσομίδης]
TTITLE1=Καζαντζίδης Στέλιος - Γεντί κουλέ [Γιώργου Μητσάκη, σόλο μπουζ. ιδίου]
TTITLE2=Τσαουσάκης Πρόδρομος - Ό,τι βρέξει, ας κατεβάσει [Απ. Καλδάρας-Κ. Βίρβ
TTITLE2=ος, σόλο μπυζ. Απ. Καλδάρας]
TTITLE3=Άνευ ερμηνευτού - Ραψωδία μπουζουκιού [ορχ., σόλο μπουζ. Δημ. Στεργίου
TTITLE3=ή Μπέμπης]
TTITLE4=Μπίνης Τάκης-Μαρκοπούλου Ευαγγελία - Όταν κοιμάται ο δυστυχής [Βασ. Κα
TTITLE4=ραπατάκης-Χ. Βασιλειάδης, μπ. Β. Καρ.]
TTITLE5=Λύδια Γιώτα-Ρουμελιώτης Δημήτρης - Όποιος πολλά έχει βάσανα [Γερ. Κλου
TTITLE5=βάτος-Ν. Φατσέας, μπ. Γ. Κλουβάτος]
TTITLE6=Άνευ ερμηνευτού - Τσιφτετέλι με ταξίμι [ορχ., Ιορδ. Τσομίδης, σόλο μπο
TTITLE6=υζ. Ιορδ. Τσομίδης]
TTITLE7=Τσομίδης Ιορδάνης-Γκρέϋ Καίτη - Βάστα πονεμένο μου κορμί [Γ. Κλουβάτος
TTITLE7=(μπ.)-Χ. Κολοκοτρώνης-Ι. Παπαγιαννοπούλου]
TTITLE8=Τσαουσάκης Πρόδρομος-Στάμου Ρένα - Κυνηγημένος από τους νόμους [Μπ. Μπ
TTITLE8=ακάλη-Κ. Βίρβου, μπ. Γ. Τατασσόπουλος]
TTITLE9=Άνευ ερμηνευτού - Σόλο μπουζούκι [ορχ., Βασ. Τσιτσάνη, σόλο μπουζ. Βασ
TTITLE9=Τσιτσάνης]
TTITLE10=Παγιουμτζής Στράτος - Κλάψε με μάννα μου γλυκειά [Μαν. Χιώτης-Χρ. Κολ
TTITLE10=οκοτρώνης, σόλο μπουζ. Μ. Χιώτης]
TTITLE11=Καζαντζίδης Στέλιος - Ο Χάρος [Γιάννης Παπαϊωάννου, σόλο μπουζ. Γ. Πα
TTITLE11=παϊωάννου]
TTITLE12=Χιώτης Μανώλης-Λύδια Γιώτα - Το παλληκάρι που γυρνά [Μαν. Χιώτης, σόλ
TTITLE12=ο μπουζ. Μαν. Χιώτης]
TTITLE13=Γαβαλάς Πάνος - Ζωή σερέτισσα [Κώστας Καπλάνης-Ευτ. Παπαγιαννοπούλου,
TTITLE13=σόλο μπουζ. Κ. Καπλάνης]
TTITLE14=Άνευ ερμηνευτού - Μπουζούκι σόλο part I and II [ορχ., Ιορδ. Τσομίδης, σ
TTITLE14=όλο μπουζ. Ιορδ. Τσομίδης]
TTITLE15=Πάνου Πόλυ-Χιώτης Μανώλης - Σε λίγα δευτερόλεπτα [Μαν. Χιώτης-Χρ. Κολ
TTITLE15=οκοτρώνης, σόλο μπουζ. Μαν. Χιώτης]
TTITLE16=Χορωδία - Έχεις δίκιο [Γιάννης Παπαϊωάννου-Αλέξ. Αγγελόπουλος, σόλο μ
TTITLE16=πουζ. Γ. Παπαϊωάννου]
TTITLE17=Άνευ ερμηνευτού - Γαλατιανό χασαποσέρβικο [ορχ., Σ.Περιστέρης-Ζ.Ιακωβ
TTITLE17=ίδης-Π.Οικονόμου, μπ.Γιάν.Σταματίου]
TTITLE18=Ρουμελιώτης Δημήτρης-Καζαντζίδης Στέλιος - Με μιά αριστοκράτισσα [Γερ
TTITLE18=Κλουβάτος-Χρ. Κολοκοτρώνης, μπ. Γ. Κλ.]
TTITLE19=Άνευ ερμηνευτού - Ιορδάνης ποταμός [ορχ., Ιορδ. Τσομίδης, σόλο μπουζ.
TTITLE19=Ιορδ. Τσομίδης]
EXTD=
EXTT0=
EXTT1=
EXTT2=
EXTT3=
EXTT4=
EXTT5=
EXTT6=
EXTT7=
EXTT8=
EXTT9=
EXTT10=
EXTT11=
EXTT12=
EXTT13=
EXTT14=
EXTT15=
EXTT16=
EXTT17=
EXTT18=
EXTT19=
PLAYORDER=
